<svg xmlns="http://www.w3.org/2000/svg" viewBox="0 0 24 24">
	<path style="fill: var(--svg-color-fg, currentColor);" d="M22,2.7H2c-1.1,0-2,0.9-2,2v14.7c0,1.1,0.9,2,2,2h20c1.1,0,2-0.9,2-2V4.7C24,3.6,23.1,2.7,22,2.7z M22,19.3H2V4.7h20V19.3z
	 M8.7,12c1.5,0,2.7-1.2,2.7-2.7s-1.2-2.7-2.7-2.7S6,7.9,6,9.3S7.2,12,8.7,12z M4.9,17.3h7.5c0.5,0,0.9-0.4,0.9-0.8v-0.8
	c0-1.3-1.3-2.4-2.8-2.4c-0.5,0-0.8,0.3-1.9,0.3c-1.1,0-1.4-0.3-1.9-0.3c-1.5,0-2.8,1.1-2.8,2.4v0.8C4,17,4.4,17.3,4.9,17.3z
	 M15,14.7h4.7c0.2,0,0.3-0.2,0.3-0.3v-0.7c0-0.2-0.1-0.3-0.3-0.3H15c-0.2,0-0.3,0.2-0.3,0.3v0.7C14.7,14.5,14.8,14.7,15,14.7z
	 M15,12h4.7c0.2,0,0.3-0.2,0.3-0.3V11c0-0.2-0.1-0.3-0.3-0.3H15c-0.2,0-0.3,0.2-0.3,0.3v0.7C14.7,11.8,14.8,12,15,12z M15,9.3h4.7
	C19.9,9.3,20,9.2,20,9V8.3C20,8.1,19.9,8,19.7,8H15c-0.2,0-0.3,0.2-0.3,0.3V9C14.7,9.2,14.8,9.3,15,9.3z"/>
</svg>
