<?xml version="1.0" encoding="utf-8"?>
<!-- Generator: Adobe Illustrator 26.0.3, SVG Export Plug-In . SVG Version: 6.00 Build 0)  -->
<svg version="1.1" id="Layer_1" xmlns="http://www.w3.org/2000/svg" xmlns:xlink="http://www.w3.org/1999/xlink" x="0px" y="0px"
	 viewBox="0 0 96 96" style="enable-background:new 0 0 96 96;" xml:space="preserve">
<style type="text/css">
	.st0{fill-rule:evenodd;clip-rule:evenodd;fill:#FFFFFF;}
	.st1{fill:none;stroke:#FFFFFF;stroke-width:6.5;}
</style>
<path class="st0" d="M63.9,83.3c-7.1,12.2-24.7,12.2-31.8,0L2.5,32C-4.6,19.8,4.3,4.5,18.4,4.5l59.2,0c14.1,0,23,15.3,15.9,27.5
	L63.9,83.3z M37.8,80.1c4.5,7.9,15.9,7.9,20.5,0l29.6-51.3C92.4,20.9,86.7,11,77.6,11l-59.2,0C9.3,11,3.6,20.9,8.1,28.8L37.8,80.1z"
	/>
<circle class="st1" cx="48" cy="40" r="12.3"/>
<path class="st1" d="M48.3,27.7c-24.4,0-27.3,29.9-24.4,34.9"/>
<path class="st1" d="M37.3,45.9c11.9,20.7,38.9,9.4,41.8,4.4"/>
<path class="st1" d="M58.7,45.9C71.1,24.5,47.1,7.7,41.3,7.8"/>
</svg>
